<svg width="220" height="210" viewBox="0 0 220 210" fill="none" xmlns="http://www.w3.org/2000/svg">
<path d="M110 0C49.2422 0 0 43.6406 0 97.5C0 120.75 9.19531 142.031 24.4922 158.766C19.1211 182.391 1.16016 203.438 0.945312 203.672C0 204.75 -0.257812 206.344 0.300781 207.75C0.859375 209.156 2.0625 210 3.4375 210C31.9258 210 53.2813 195.094 63.8516 185.906C77.9023 191.672 93.5 195 110 195C170.758 195 220 151.359 220 97.5C220 43.6406 170.758 0 110 0ZM55 112.5C47.3945 112.5 41.25 105.797 41.25 97.5C41.25 89.2031 47.3945 82.5 55 82.5C62.6055 82.5 68.75 89.2031 68.75 97.5C68.75 105.797 62.6055 112.5 55 112.5ZM110 112.5C102.395 112.5 96.25 105.797 96.25 97.5C96.25 89.2031 102.395 82.5 110 82.5C117.605 82.5 123.75 89.2031 123.75 97.5C123.75 105.797 117.605 112.5 110 112.5ZM165 112.5C157.395 112.5 151.25 105.797 151.25 97.5C151.25 89.2031 157.395 82.5 165 82.5C172.605 82.5 178.75 89.2031 178.75 97.5C178.75 105.797 172.605 112.5 165 112.5Z" fill="white"/>
</svg>
