<svg width="200" height="210" viewBox="0 0 200 210" fill="none" xmlns="http://www.w3.org/2000/svg">
<path d="M176.041 115.237C176.426 111.956 176.682 108.544 176.682 105C176.682 101.456 176.426 98.0438 175.913 94.7625L197.585 77.4375C199.509 75.8625 200.022 72.975 198.868 70.7438L178.349 34.3875C177.067 32.025 174.374 31.2375 172.066 32.025L146.546 42.525C141.16 38.325 135.518 34.9125 129.234 32.2875L125.387 4.4625C125.002 1.8375 122.822 0 120.257 0H79.2207C76.656 0 74.6042 1.8375 74.2194 4.4625L70.3723 32.2875C64.0886 34.9125 58.3178 38.4562 53.06 42.525L27.5405 32.025C25.2322 31.1063 22.5392 32.025 21.2568 34.3875L0.738596 70.7438C-0.543792 73.1062 -0.0308352 75.8625 2.02099 77.4375L23.6933 94.7625C23.1804 98.0438 22.7957 101.588 22.7957 105C22.7957 108.412 23.0522 111.956 23.5651 115.237L1.89274 132.562C-0.0308382 134.138 -0.543792 137.025 0.610357 139.256L21.1286 175.613C22.411 177.975 25.104 178.763 27.4123 177.975L52.9318 167.475C58.3178 171.675 63.9603 175.087 70.244 177.712L74.0912 205.537C74.6042 208.162 76.656 210 79.2207 210H120.257C122.822 210 125.002 208.162 125.258 205.537L129.106 177.712C135.389 175.087 141.16 171.544 146.418 167.475L171.937 177.975C174.246 178.894 176.939 177.975 178.221 175.613L198.739 139.256C200.022 136.894 199.509 134.138 197.457 132.562L176.041 115.237ZM99.739 144.375C78.5796 144.375 61.2673 126.656 61.2673 105C61.2673 83.3438 78.5796 65.625 99.739 65.625C120.898 65.625 138.211 83.3438 138.211 105C138.211 126.656 120.898 144.375 99.739 144.375Z" fill="white"/>
</svg>
