<svg width="220" height="210" viewBox="0 0 220 210" fill="none" xmlns="http://www.w3.org/2000/svg">
<path d="M107.083 54.4795L36.6696 125.667V202.499C36.6696 204.489 37.3134 206.396 38.4593 207.803C39.6053 209.21 41.1596 210 42.7802 210L85.5776 209.864C87.1929 209.854 88.7394 209.059 89.8787 207.654C91.0181 206.248 91.6577 204.346 91.6577 202.363V157.494C91.6577 155.505 92.3015 153.597 93.4475 152.19C94.5934 150.784 96.1477 149.993 97.7683 149.993H122.211C123.832 149.993 125.386 150.784 126.532 152.19C127.678 153.597 128.322 155.505 128.322 157.494V202.33C128.319 203.317 128.475 204.295 128.781 205.208C129.087 206.121 129.537 206.95 130.105 207.649C130.672 208.348 131.347 208.903 132.089 209.281C132.832 209.66 133.628 209.855 134.432 209.855L177.214 210C178.835 210 180.389 209.21 181.535 207.803C182.681 206.396 183.325 204.489 183.325 202.499V125.616L112.927 54.4795C112.099 53.6606 111.068 53.2141 110.005 53.2141C108.942 53.2141 107.911 53.6606 107.083 54.4795ZM218.308 102.865L186.38 70.5594V5.62563C186.38 4.13362 185.897 2.70272 185.038 1.64771C184.178 0.592699 183.013 0 181.797 0H160.41C159.195 0 158.029 0.592699 157.169 1.64771C156.31 2.70272 155.827 4.13362 155.827 5.62563V39.6654L121.634 5.13339C118.353 1.81886 114.235 0.0066258 109.986 0.0066258C105.736 0.0066258 101.619 1.81886 98.3374 5.13339L1.66324 102.865C1.19916 103.335 0.815212 103.914 0.533329 104.567C0.251445 105.22 0.0771497 105.935 0.0204025 106.671C-0.0363448 107.406 0.0255679 108.149 0.202603 108.855C0.379638 109.561 0.668326 110.218 1.05217 110.787L10.791 125.32C11.1738 125.892 11.6446 126.365 12.1766 126.712C12.7085 127.06 13.2911 127.276 13.891 127.347C14.4909 127.418 15.0962 127.343 15.6725 127.126C16.2487 126.909 16.7845 126.555 17.2492 126.084L107.083 35.2586C107.911 34.4397 108.942 33.9932 110.005 33.9932C111.068 33.9932 112.099 34.4397 112.927 35.2586L202.764 126.084C203.228 126.556 203.763 126.91 204.339 127.127C204.914 127.345 205.519 127.421 206.118 127.351C206.718 127.281 207.3 127.067 207.832 126.721C208.364 126.375 208.835 125.904 209.219 125.334L218.958 110.801C219.341 110.229 219.629 109.569 219.803 108.859C219.978 108.15 220.037 107.405 219.977 106.667C219.917 105.93 219.738 105.214 219.452 104.562C219.166 103.909 218.777 103.332 218.308 102.865Z" fill="white"/>
</svg>
