<svg width="200" height="219" viewBox="0 0 200 219" fill="none" xmlns="http://www.w3.org/2000/svg">
<path d="M197.266 188.651L158.32 146.165C156.562 144.247 154.18 143.182 151.68 143.182H145.312C156.094 128.139 162.5 109.219 162.5 88.6364C162.5 39.6733 126.133 0 81.25 0C36.3672 0 0 39.6733 0 88.6364C0 137.599 36.3672 177.273 81.25 177.273C100.117 177.273 117.461 170.284 131.25 158.523V165.469C131.25 168.196 132.227 170.795 133.984 172.713L172.93 215.199C176.602 219.205 182.539 219.205 186.172 215.199L197.227 203.139C200.898 199.134 200.898 192.656 197.266 188.651ZM81.25 143.182C53.6328 143.182 31.25 118.807 31.25 88.6364C31.25 58.5085 53.5937 34.0909 81.25 34.0909C108.867 34.0909 131.25 58.4659 131.25 88.6364C131.25 118.764 108.906 143.182 81.25 143.182Z" fill="white"/>
</svg>
