<svg width="220" height="230" viewBox="0 0 220 230" fill="none" xmlns="http://www.w3.org/2000/svg">
<path d="M171.375 67.5C171.375 104.531 143.844 134.5 110 134.5C76.1561 134.5 48.625 104.531 48.625 67.5C48.625 30.4687 76.1561 0.5 110 0.5C143.844 0.5 171.375 30.4687 171.375 67.5ZM110 148C121.213 148 131.865 145.281 141.442 140.5H165C195.063 140.5 219.5 167.094 219.5 200V207.5C219.5 219.688 210.446 229.5 199.375 229.5H20.625C9.55449 229.5 0.5 219.688 0.5 207.5V200C0.5 167.094 24.9373 140.5 55 140.5H78.5582C88.1767 145.281 98.7864 148 110 148Z" fill="white" stroke="white"/>
</svg>
