<?xml version="1.0" encoding="utf-8"?>
<!-- Generator: Adobe Illustrator 19.0.0, SVG Export Plug-In . SVG Version: 6.00 Build 0)  -->
<svg version="1.1" id="Camada_1" xmlns="http://www.w3.org/2000/svg" xmlns:xlink="http://www.w3.org/1999/xlink" x="0px" y="0px"
	 viewBox="107 167 395 536" style="enable-background:new 107 167 395 536;" xml:space="preserve">
<style type="text/css">
	.st0{fill:#D13B3B;}
	.st1{fill:#E63437;}
	.st2{fill:#F8F6F6;}
	.st3{fill:#782626;}
	.st4{fill:#D53C3C;}
	.st5{fill:#DC393A;}
</style>
<g>
	<path class="st0" d="M245,342c2.2,0.9,3.2-1,4.5-2c9.3-7.4,18.4-15.1,27.3-23c2-1.8,4-3.2,6.9-3.6c4.1-0.5,8.1-1.3,12.2-2
		c2.1,2.3,5,2.8,7.8,3.6c6.5,1.8,12.8,4,16.9,10c1.6,7.2,5.2,13.6,9.3,19.6c0.5,0.8,1.1,1.7,2.4,1.3c-0.3,0.5,0,0.9,0.2,1.3
		c0,0,0.4-0.1,0.4-0.2c0.1-0.6-0.2-0.9-0.7-1c-1.3-4.6-4.2-8.5-5.8-12.9c0.7-0.1,1.3-0.1,2-0.2c2.9,5.3,5.9,10.5,8.1,16.1
		c-2.3,0.2-2.3,0.2-1.4,2c0,0.3,0.1,0.7,0.1,1c-2.6,0.4-4.8-1-7.2-1.5c-1.2-0.3-2.8-1.7-3.6,0.7c0.7,3.1,1.7,6,2.2,9.1
		c0.4,2.8,1.4,5.4,4.2,6.9c2.1,1.2,3.5,2.9,3.6,5.6c0,1.4,1,2,2.4,1.9c1.3-0.1,1.3-1.2,1.4-2.2c0-0.5,0.1-1,0.1-1.5
		c5.5,2.5,6.8,5.4,5,10.8c-1.3,3.7-4.1,6.2-6,9.5c-4.3-4.7-10.2-3.6-15.4-3.9c-3.3-0.2-5.2,3.7-6.9,6.5c-2.8,4.5-5.1,5.5-10.3,3.9
		c-1.7-0.5-3.5-1-5.2-1.6c-1.9-0.7-3.5-1.8-4.6-3.7c-4.7-8-13.9-11.5-22.5-8.4c-10,3.6-19.9,7.4-30.4,9.5c-0.5,0.1-1,0-1.6,0
		c-1.8-3.3-3.9-6.5-6.1-9.6c-1.6-2.1-3-2.5-5.5-1.5c-5.9,2.6-11.9,4.9-18.7,7.7c4.7-8.2,8.5-15.9,19.2-15.8
		c-1.3,3.3-4.7,4.5-7.1,7.9c9.1-1.6,15.8-6.8,23.1-10.6c0.8,1.9-0.4,2.5-1,3.4c-0.5,0.8-1.6,1.2-1.4,2.5c1.5,0.1,2.3-1.2,3.4-1.7
		c0.6-0.3,1.2-1.1,1.7-0.7c3.6,3,5.9-0.4,8.1-1.9c3.8-2.6,7.2-5.9,9.8-9.8c0.5-0.3,0.9-0.7,0.8-1.3c0.7-0.1,1.1-0.4,0.8-1.2
		c0.8,0.3,0.9,0,0.6-0.7c-0.2,0.2-0.3,0.5-0.5,0.7c-0.6,0.1-1,0.3-1.1,0.9c-0.6,0-0.9,0.3-1.1,0.9c-2.3,0.8-3.6,2.9-5.5,4.3
		c-1.4,1.1-2.7,2.6-5.4,1.5c2.3-2.7,4.5-5.2,6.5-7.9c1.4-1.8,3.5-3.2,3.4-5.8L264,355c1.1-0.2,2.2-0.9,1.5-1.8
		c-1.3-1.8,0.1-2.8,0.9-3.2c2.8-1.5,3.1-4.7,5-6.8c1.9-2.2,3.9-4.6,4.8-7.5c0-0.1,0-0.3,0-0.5c1.7-0.5,2.1-1.7,1.8-3.2
		c2.3-0.3,2-2.3,2.6-3.7c-1.1,1.1-2.5,2-2.5,3.8c-1.3,0.6-1.9,1.6-2.1,2.9c-2.5,1.8-3.8,4.5-5.6,6.9c-9.1,11.9-19.8,22.1-32,30.9
		c-1.3,1-2.5,2.1-4.2,2.5c-0.2-0.2-0.5-0.5-0.7-0.7c4.2-5.6,6.2-12.4,9.5-18.5c0.2-0.1,0.5-0.1,0.7-0.2c-0.1-0.2-0.2-0.3-0.4-0.5
		c-0.1,0.2-0.3,0.5-0.4,0.7c-4.3,3.6-7.4,8.5-12,11.8c-1.4,0.9-2.2,3.1-4.6,1.5c-0.9-0.7-1.7,0.6-2.5,1.2c-1.7,1.2-3.1,3.1-5.3,3.5
		c-1.4-6-1.4-6-9.1-6.3c0.5-1.5,2-1.7,3.1-2.2c11.1-5.5,20.9-13,30.6-20.5C244.1,344.2,245.8,343.8,245,342L245,342z M248.4,349.2
		c6.8-1.6,19.1-13.3,21.2-19.6C262.5,336.2,255.9,342.3,248.4,349.2z M296.1,327.8c-0.3-0.2-0.6-0.4-0.9-0.6
		c-4.8,6.7-9.6,13.3-14.4,20c0.3,0.2,0.6,0.4,0.9,0.6C289,342.8,292.1,335,296.1,327.8z M281.7,326.6l-0.3-0.2l-0.1,0.4L281.7,326.6
		z"/>
	<g>
		<path class="st1" d="M245,342L245,342L245,342L245,342z"/>
		<path class="st1" d="M442.8,270.8c-5.2-15.1-13.4-28.5-23.1-41c-1.6-0.3-3.3-0.4-5.5,0.4c-0.3,13.2-1.2,26.6,0,39.9
			c-1.8,1.5-3.7,0.6-5.6,1.1c-2.5-10.5,2.6-21.3-2-31.8c4-1.6,2.5-5.3,2.8-8.8c-3.1-1.3-6.5-1.5-9.7-1.5c-3.4,0.1-4.1-1.4-3.3-4.5
			c2.6-0.9,5.5-0.2,8.2-0.4c1.1-0.1,2.4,0,3.4-0.4c1.2-0.5,2.1-1.6,1.9-3.2c-0.3-1.7-1.3-2.5-3.1-2.5c-2.2,0.1-4.3-0.1-6.5-0.2
			c-2-0.1-4.1-0.1-4.5-2.8c-0.2-1.3-1.2-1.8-2.5-2c-3.2-0.7-5.1-2.7-5.9-5.9c-0.4-1.6-1.4-3-2.1-4.5c0.7-1.1,1.9,0.1,2.7-0.4
			c-0.1-1.5-1.4-1.7-2.3-2.3c-9.5-6.2-19.6-11.1-30.3-14.9c-11.4-4.1-23.1-7-35.3-7.9c-14,0.6-28-1.4-42.1,1.5
			c-8.8,1.8-17.5,3.4-25.9,6.5c-6.9,2.1-13.3,5.5-19.7,8.7c-21.3,10.7-38.5,26.1-51.8,45.6c-21,30.8-28.2,64.7-21.5,101.5
			c7.7,0,15.4,0,23-0.1c17.7,0.2,35.3,0.3,53-0.3c2.9,0.8,6-0.5,8.9,0.9c0.4,0.2,0.7,0.4,1.1,0.5c-0.5-1.8,1.1-2.2,2-2.9
			c9.1-7.7,18.8-14.8,27.1-23.3c2.2-2.2,4.8-4.2,8.5-4.5c6.8-0.4,13.4-2.3,19.9-4.3c3.8-1.2,7.5-1.1,11.2,0.4
			c6.5,2.6,11.4,7.3,16.1,12.2c5.2,5.4,10.7,10.4,16.7,14.8c13.9-0.1,27.8,0,41.7-0.1c0,0.6,0,1.2,0,1.9c-13.3,0-26.6,0-39.9,0
			c3.1,2.8,5.9,6,9.7,8c27.5-0.9,55.1-0.9,82.6-1.1c2.5,0,5-0.1,7.5-0.2c0.2-1.5,0.3-3,0.5-4.4c-1.1-0.2-2.2-0.4-3.6-0.6
			c0.6-2.7,2.5-3.6,4.8-4c0-1.2,0.1-2.5,0.1-3.7c-1-0.7-0.5-1.4,0-2C452.2,308.4,449.2,289.3,442.8,270.8z M187,325.1
			c-2.1-0.8-5,0.9-6.6-1.7c0.3-2.4,3.4-2.2,3.6-4.4c8.1-1.9,15.9-5.2,24.6-4.3c4.5,0.4,9.2-0.5,13.9,0c4.8,0.6,8,4.1,12.1,6
			c1.1,0.5,1.5,2.1,1,4.2C219.5,324.9,203.2,325,187,325.1z"/>
	</g>
	<path class="st2" d="M214.2,505.4c1.9-0.7,3.7-1,5.1-0.1c5.9,3.6,11.8,1.9,17.8,0.5c7.9-1.9,15.8-3.9,23.6-5.9
		c2.6-0.7,5.2-0.9,7.9-0.9c5.8,0.1,11.7,0.5,17.5-0.1c7.2-0.8,12.5,2.6,17.7,6.5c3.4,2.5,3.7,5.7,0.2,8.2c-5.2,3.7-6.3,8.6-7,14.6
		c-1.6,12.5-1.1,24.9-0.3,37.3c0.1,2,0.1,4-0.2,6c-0.7,5.5-0.5,10.9,0.1,16.4c0.7,6.5,0.5,13-2,19.2c-0.7,1.9-1.7,3.6-3.5,4.8
		c-4.9,3.4-7.6,2.7-9.8-2.8c-2.1-5.2-3-5.8-8.4-6c-14.6-0.6-28.8,1.1-42.5,6.8c-4.5,1.9-7.8,0.8-10.9-3c-3.7-4.5-5.2-10-4.2-15.4
		c4.4-22.2,4.8-44.6,4.6-67.1c-0.1-5.3-0.6-10.2-4.1-14.5C215,508.6,214.1,507.3,214.2,505.4z M241.2,560.1
		c9.6-4.2,19-7.5,27.7-12.3c5-2.7,9.9-5.6,15.8-1.6c0.8-10.4-0.3-20-0.7-29.7c-0.3-7.8-1.5-8.8-9.1-6.8
		c-11.8,3.2-23.6,6.8-35.4,10.1c-3.1,0.9-3.8,2.8-3.7,5.6c0.3,7,0.4,14,0.8,21c0.3,5.1,1.3,10.1,1.6,15.1c0.5,7.4-1.1,14.9-1.8,22.3
		c-0.5,5.5-0.6,11-1.7,16.9c16.3-4.4,31.5-9.4,47.9-9.8c0.4-10.5,0.3-20.8,0.9-31.1c0.2-2.6-1.6-3.9-4.4-3.2
		c-9.5,2.5-19.5,2-28.9,5.3C247.3,563,244.2,563,241.2,560.1z"/>
	<path class="st2" d="M334.9,586.9c4.8-8.5,9.4-17,12.1-26.5c2.3-8.2,3.2-16.6,3.9-25.1c0.3-3-0.3-5.9-1.1-8.8
		c-0.8-2.9,0.3-4.3,2.7-3.3c8,3.5,15.2-0.3,23.4-1.5c-1.7-2.2-4-3-5.1-4.9c-1.2-2-2.4-3.9-3.2-6.2c2.1-0.6,3.6,0.2,5.2,0.4
		c2.6,0.3,5,1.5,6,3.9c1.1,2.6-1.3,4.1-3,6c3.9,0.7,7.2-1.2,10.7-1.7c2.5-0.4,4.7-0.2,6.3,1.9c2.1,2.9,1.4,4.5-2.2,4.8
		c-4.6,0.4-9.3,0.7-14.3,1c1,2.2,2.4,4.2,1.2,7.3c4.1-1.7,7.3-3.4,11.1-1.8c4.1,1.7,4.8,2.7,4.4,8c1.4,0.6,3,0.2,4.4,0.3
		c2.3,0.2,4.1,1.3,5.5,3.1c0.7,0.9,1.6,1.9,0.7,3.1c-0.7,1-1.7,1.7-3,1.5c-2.5-0.4-4.9-0.7-7.4-0.7c-3.9,0.1-5.4,1.9-4.4,5.6
		c0.4,1.4,0.7,2.5,0,3.8c-4.1,1.1-8.5-0.2-12.8,1.1c0.2,5.5,5.6,6.3,7.6,10.1c3.2-3.2,4.8-6.7,5.7-10.6c3,0.1,6.8,2.6,7.7,5
		c0.6,1.7-0.4,2.4-1.7,3c-3,1.3-6.1,2.6-9.5,4c6.5,7.2,15.3,9.9,23.8,14.3c-5.3,2.1-10.1,1.7-14.9,2c-2.2,0.1-3.6-1.4-4.9-3
		c-3.9-4.7-7.8-9.5-11.5-14.1c-1.9,0.3-2.1,1.4-1.9,2.6c0.3,2.5,0.6,5,0.8,7.4c0.3,2.5,0.4,5-0.3,7.4c-0.7,2.3-1.4,5.2-4.1,5.9
		c-2.6,0.7-3.3-2.3-4.7-3.7c-2-2.1-3.9-4.4-5.9-6.8c2.4-1.8,4.5,1,6.7-0.8c0.5-2.5,0.9-5.3,0.4-8.8c-5.9,4.1-10.4,9.2-15.7,13.5
		c-3.1-1.5-4.1-4.3-5.7-7.1c3.3-2.7,7.3-3.3,10.7-5.2c1.3-0.7,3.9-0.2,3.7-2.9l-0.1,0.1c7,1.1,8.7-1.5,7.1-11.1c-3,0.3-6,1.6-9.1,1
		l0.1,0.1c0.3-1.6-1.9-2.1-1.8-3.9c2.6-1.3,5.7-1.4,8.5-2.1c3.2-0.7,3.5-2.4,2.8-5.1c-4.5-0.4-8.4,2.8-13.1,1
		c-1.3,4-2.3,7.9-3.7,11.8c-2.8,7.9-6.9,15-13.1,20.8c-1.5,1.4-3.1,2.4-4.9,3.2L334.9,586.9z M369.9,536.6c-0.3-1.6-0.5-2.9-0.8-4.2
		c-1-4.1-1.3-4.3-5.3-3.3c-5.1,1.2-5.1,1.2-5.7,6.4c-0.4,3.4-0.7,6.8-1,10.6c4-0.5,7.6-0.8,11.2-1.3c2.3-0.3,1.7-1.8,1.4-3.2
		c-6.8,0-6.8,0-8.1-3.3C364.3,537.6,366.8,537.2,369.9,536.6z"/>
	<path class="st3" d="M328.1,332.9c-0.7,0.1-1.3,0.1-2,0.2c-2.2-2.5-2.1-6.6-5.7-8.1c-4.1-6-10.4-8.2-16.9-10
		c-2.8-0.8-5.7-1.3-7.8-3.6c3.1-1.6,6.6-2.4,9.9-3.1c5.6-1.2,9.9,2.2,14,5.2c4.2,3,7.7,6.7,11,10.7c3.6,4.3,7.6,8.3,12.3,11.7
		c1.6,1.2,2.9,2.6,4,4.4c5.3,8.3,12.5,14,22.4,15.9c0.8,0.1,1.5,0.7,2.2,1.1c14.9,10.2,30.3,19.8,44.6,30.9c0.6,0.5,1.3,1,1.4,1.8
		c-0.9,1.4-2.3,1.2-3.1,0.7c-7.2-4.3-14.7-2.7-22.3-1.5c-8.9,1.4-17.9,1.2-26.8,0.2c-5.7-0.7-10.9-0.3-15.6,3.2
		c-1.6,1.2-3.2,1.9-5.1,1.2c-1.9-0.8-3.8-1-5.8-0.3c-2.2,0.7-2-0.9-2.1-2.2c1.9-3.3,4.7-5.8,6-9.5c1.8-5.3,0.5-8.3-5-10.8
		c0-1.7,0-3.3,0-5c1.3,0.5,1.9,1.7,2.9,2.6c1.9,1.7,3.2,4.2,6.1,4.4c0.1,0.4,0.1,1,0.7,0.4c-0.2-0.1-0.5-0.3-0.7-0.4
		c0.1-0.8-0.2-2.3,1.4-1c0.9,0.7,1.4,1.8,2.6,2c0.1,0.5,0.5,0.8,1,1c0.1,0.1,0.1,0.3,0.2,0.4c0,0.1,0.2,0.1,0.3,0.1
		c-0.2-0.1-0.3-0.3-0.5-0.4c-0.1-0.6-0.3-1-1-1c0.5-1.8-0.8-2.9-1.7-4.3c-1.2-1.8-3.1-3.3-3.3-5.7c2.5-0.4,3.2,1.9,4.7,3.1
		c3,2.4,5,6.2,9.3,7c0.1,0.4,0.2,0.9,0.4,1.3c0.2-0.1,0.5-0.3,0.5-0.4c0-0.5-0.3-0.9-0.8-1.1c-1-1.3-2.1-2.6-3.1-4
		c3.3-0.9,5.1,3.6,8.7,2.6c-1.9-1.7-3.6-3.2-5.3-4.7c-1.8-1.7-3.5-3.5-5.3-5.2c-1.2-1.1-2-2.8-4-2.6c-0.1-0.3,0.1-1-0.6-0.4
		c0.2,0.1,0.4,0.3,0.7,0.4c0,1,0,2,0,3c-1.7-0.5-2.6-2-3.6-3.3c-6-7.9-11.2-16.3-15.8-25.1c-1.5-2.9-3.2-5.6-4.9-8.6
		c-0.4,0.6-0.5,0.7-0.5,0.9C325.9,329.2,328,330.7,328.1,332.9z M352,354c0.1,0.3,0,0.9,0.7,0.4C352.4,354.3,352.2,354.1,352,354
		c0-2.3-1.9-3.4-3.1-4.9c-4.5-5.8-8.2-12.2-13.9-17.1c-0.1-0.1-0.1-0.3-0.2-0.4s-0.3-0.1-0.3-0.1c-0.1,0.3,0.1,0.5,0.5,0.4
		c-0.2,1,0,1.9,0.5,2.8c3.6,5.9,7.5,11.6,12.4,16.6C349.1,352.5,350,354.1,352,354z M325.8,323.8c-0.1-0.1-0.3-0.4-0.3-0.4
		c-0.4,0.1-0.5,0.4-0.4,0.8c0.1,0.1,0.2,0.4,0.3,0.4C325.8,324.5,326,324.2,325.8,323.8z"/>
	<path class="st4" d="M369.5,352.5c-2.7-1.4-5.3-3-7.4-5.2c28.3-0.2,56.5-0.4,84.8-0.6c-3.4,15.8-10.1,30.1-18.9,43.6
		c-1.9,2.9-5,3.2-6.7,0.3c-2.4-4.1-6.2-6.4-9.8-9c-13-9.2-26.2-18.1-39.4-27.1c7.7-0.1,15.3-0.1,23-0.2c1.2,0,2.3,0,3.5-0.1
		c0.7-0.1,1.3-0.4,1.3-1.2c0.1-1-0.4-1.6-1.4-1.7c-0.7-0.1-1.3-0.1-2-0.1c-7.7,0-15.3,0-23,0C372,351,370.4,350.9,369.5,352.5z"/>
	<path class="st2" d="M419.7,229.7c-1.6-0.3-3.3-0.4-5.5,0.4c-0.3,13.2-1.2,26.6,0,39.9c-1.8,1.5-3.7,0.6-5.6,1.1
		c-2.5-10.5,2.6-21.3-2-31.8c4-1.6,2.5-5.3,2.8-8.8c-3.1-1.3-6.5-1.5-9.7-1.5c-3.4,0.1-4.1-1.4-3.3-4.5c2.6-0.9,5.5-0.2,8.2-0.4
		c1.1-0.1,2.4,0,3.4-0.4c1.2-0.5,2.1-1.6,1.9-3.2c-0.3-1.7-1.3-2.5-3.1-2.5c-2.2,0.1-4.3-0.1-6.5-0.2c-2-0.1-4.1-0.1-4.5-2.8
		c-0.2-1.3-1.2-1.8-2.5-2c-3.2-0.7-5.1-2.7-5.9-5.9c-0.4-1.6-1.4-3-2.1-4.5c0.7-1.1,1.9,0.1,2.7-0.4v-0.1c0.2,1.3,1.2,1,2,0.9
		c3.6,1.8,7.7,2.3,11.6,2.9c18.6,3,37.1,2.6,55.7-0.7c6.2-1.1,12.3-2.1,18.8-3.3c-0.8,3.4-4.5,3.5-5.8,5.8c0.6,1.4,2,0,2.6,0.9
		c-0.1,0.3-0.1,0.7-0.2,0.9c-1.9,2.8-6.3,3-7.2,7c-0.1,0.4-1.8,0.4-2.8,0.7c-2.3,0.6-4.6,0.8-6.9,0.9c-1.7,0.1-4,0.2-3.8,2.3
		c0.2,1.8,1.7,3.7,3.9,3.8c2.1,0.2,4.3-0.2,6.5-0.3c1.1,0,2.3-0.6,3.4,0c0.6,1.3,0.4,2.5,0,4.2c-4.4,1.5-9.4,0.2-13.9,1.7
		c-0.2,7.3-0.2,7.3,3,8.9c-1.3,9.9,0.7,19.8,0,29.8c-1.5,0.9-3.1,0.7-5.1,0.4c-2-13.1-1.5-26.3-2.3-39.9
		C437.9,229.3,428.8,228.8,419.7,229.7z M434.5,218.4c-0.1,2.8-0.6,5,0.3,7.2c2.7-0.2,5.1-0.5,7.6-0.7c4.8-0.4,5.7-2,4-6.5
		C442.6,218.4,438.8,218.4,434.5,218.4z M428.6,225.7c0.4-2.4,0.4-4.7,0.1-7.2c-4.2,0-8.3,0-12.3,0c-1.2,4.6-0.2,6,4.3,6.4
		C423.1,225.1,425.5,225.4,428.6,225.7z"/>
	<path class="st5" d="M240,344.2c-1.3,1.7-3.1,2.7-4.9,3.9c-0.6-0.2-1.2-0.6-1.8-0.6c-16.8,0-33.5,0-50.3,0c-0.8,0-1.7,0-1.4,1.6
		c1.8,0,3.6,0,5.4,0c15.4,0.1,30.9,0.1,46.3,0.2c-5.5,4.9-11.7,8.8-18.1,12.2c-9.7,5.2-19,10.9-27.1,18.5c-2.3,2.2-5.2,3.6-7.8,5.3
		c-2.5,1.6-3.8,0.9-5.1-1.4c-4.9-8.7-9.2-17.6-12.1-27.2c-0.9-2.9-2-5.6-2.2-8.7c1.7-1.3-1.1-1.9-0.4-3.2c8.5-0.9,17.2-0.4,25.8-0.4
		C204.1,344.1,222,344.2,240,344.2z"/>
	<path class="st2" d="M260.9,645.6c1.5,5.1,4.4,8.7,7.9,11.8c4.7,4.2,9.5,8.4,14.2,12.6c1.5,1.3,3.1,2.6,3.9,4.8
		c-2.9,2.2-6.4,2.5-9.8,2.2c-4.1-0.4-4.5-5-7.6-7.3c-1.9,1.6-4,2.6-6.8,2.3c-2.7-0.3-3.3,1.4-3.2,3.8c0.3,3.7,0.4,7.3,0.4,11
		c0,2.3-0.1,4.6-2.5,6.3c-5-5.5-2.9-12.2-3-18.2c-3.1-0.7-5,2.4-7.1,1.2c-2.2-1.2-2.8-3.9-3.7-6.6c-2.5,2-4.8,4-7.3,5.8
		c-2.4,1.7-4.9,3.3-8.6,2.3c9.5-8.6,17.7-17.8,24.2-29.6c-5.8,1.3-10.6,2.4-14.2,6.1c-3.2-0.9-3.5-3.7-4.9-6.3
		c6.1-1.6,12-2.6,17.5-4.7c1.6-0.6,4.3-0.1,4.4-2.4c0.2-3,1.2-6.4-1.8-8.9c-0.9-0.7-1.7-1.5-2.6-2.3c3.6-3.6,9.3-2.7,11.4,1.8
		c0.6,1.2,0.4,2.2-0.7,3.1c-2,1.6-1.7,3.7-1.2,6c2,0.3,3.6-0.8,5.4-1.1c3.8-0.8,7.6-0.9,11,1.7c0.9,0.7,2.1,1.3,1.6,2.8
		c-0.5,1.4-1.5,2.1-3,2.1c-1.7,0-3.3-0.2-4.9-0.6C267.1,644.7,264.3,644.6,260.9,645.6z M254.3,655.5c-0.4,0-0.7-0.1-1.1-0.1
		c-2.6,4.9-6.1,9.2-9.3,13.8c6.1,2.4,10.3-0.1,10.3-5.8C254.4,660.7,254.3,658.1,254.3,655.5z M259.3,652.1c0,5.2,0,9.4,0,13.7
		c2.8,0,5.1,0,8,0C264.8,661.1,262.5,656.8,259.3,652.1z"/>
	<path class="st2" d="M375.9,642.7c2.7-2.5,4.6-4.3,6.6-6c1.3-1.1,2.6-2.1,4-3c2.2-1.5,4.2-0.6,5.7,1.1c1.7,2,0,3.6-1.3,4.7
		c-4.4,3.6-9.3,6.3-14.7,8.1c-0.5,0.2-1,0.1-1.2,0.8c2.5,11.7,8,18.3,25.7,21.4c1.1,3.1-0.4,5.2-2.5,7.3c-2.6,2.4-5.6,3.1-8.7,1.7
		c-3.1-1.3-5.8-3.2-8-5.9c-1.8-2.2-3.7-4.3-5.3-6.6c-1.5-2.2-2.7-4.6-4-6.9c-2.3-0.1-2.7,2.1-3.7,3.4c-4.5,6.5-10.4,11.1-18,13.4
		c-0.8,0.2-1.5,0.6-2.3,0.8c-1.3,0.3-2.3-0.3-2.8-1.5c-0.6-1.5,0.6-2.2,1.7-2.5c6.9-1.5,11.2-6.3,15-11.6c3.2-4.3,4.6-9,4.6-14.7
		c-0.1-6.6-0.1-13.3,0-19.9c0-1.6,0-3.2-0.8-4.8c-1.9-3.5-1.4-4.8,2.4-7c2.9-1.7,5.5-1.2,7.3,1.6c1.3,2,1.7,4.3,1.3,6.7
		C376,629.3,376.4,635.5,375.9,642.7z"/>
	<path class="st2" d="M446.8,346.6c-28.3,0.2-56.5,0.4-84.8,0.6c-1.6-0.7-3-1.7-4.1-3.1c27.5-0.9,55.1-0.9,82.6-1.1
		c2.5,0,5-0.1,7.5-0.2c13.4,0,26.8-0.1,40.3,0c1.7,0,4.8-1.4,4.9,1.4c0.2,3.1-3,1.7-4.7,1.8c-12.3,0.2-24.5,0.2-36.8,0.3
		C450.1,346.3,448.4,345.9,446.8,346.6z"/>
	<path class="st2" d="M240,344.2c-18,0-35.9-0.1-53.9,0.1c-8.6,0.1-17.3-0.4-25.8,0.4c-0.7,1.3,2.1,1.9,0.4,3.2
		c-12-0.6-23.9-0.1-35.9-0.3c-1.8,0-3.6,0.5-5.3-1c13.1-0.6,26.2-0.4,39.7-0.6c-1.2-2.1-2.6-1.4-3.8-1.4c-6,0-12,0.1-17.9,0.2
		c-1.3,0-3,0.1-3.2-1.6c-0.2-2.2,1.8-2,3.2-2c7.1-0.1,14.3-0.2,21.4-0.2c7.7,0,15.4,0,23-0.1c17.7,0.2,35.3,0.3,53-0.3
		c2.9,0.8,6-0.5,8.9,0.9C242.6,342.3,241.3,343.2,240,344.2z"/>
	<path class="st2" d="M366.5,672.3c8.3-0.7,7.4,0.4,8.3,6.1c0.6,4-0.4,7.8-1.9,11.5c-0.6,1.4-1.4,2.6-2.7,3.4
		c-2.5,1.5-5,0.4-5.5-2.5c-0.2-1-0.1-2,0.1-2.9C365.7,682.7,368.8,678,366.5,672.3z"/>
	<path class="st2" d="M448.5,338.4c-1.1-0.2-2.2-0.4-3.6-0.6c0.6-2.7,2.5-3.6,4.8-4c5.4-1.8,11-2,16.6-1.7c4,0.2,7.4,1.8,9.7,5
		c-0.1,0.5-0.2,0.9-0.3,1.4C466.6,338.4,457.5,338.4,448.5,338.4z"/>
	<path class="st2" d="M233.2,349.2c-15.4-0.1-30.9-0.1-46.3-0.2c-1.8,0-3.6,0-5.4,0c-0.3-1.6,0.7-1.6,1.4-1.6c16.8,0,33.5,0,50.3,0
		c0.6,0,1.2,0.4,1.8,0.6C234.9,349.1,234,349,233.2,349.2z"/>
	<path class="st2" d="M369.5,352.5c0.9-1.6,2.5-1.4,4-1.4c7.7,0,15.3,0,23,0c0.7,0,1.3,0,2,0.1c1,0.1,1.4,0.8,1.4,1.7
		c0,0.8-0.6,1.2-1.3,1.2c-1.2,0.1-2.3,0.1-3.5,0.1c-7.7,0.1-15.3,0.2-23,0.2C370.8,354.3,369.8,353.8,369.5,352.5z"/>
	<path class="st2" d="M449.8,330.1c-1-0.7-0.5-1.4,0-2c12.6,0.1,25.3,0.1,37.9,0.3c1.5,0,3.2-0.6,4.5,1.8
		C478.1,330.1,464,330.1,449.8,330.1z"/>
	<path class="st2" d="M346.4,334.3c13.9-0.1,27.8,0,41.7-0.1c0,0.6,0,1.2,0,1.9c-13.3,0-26.6,0-39.9,0
		C347.3,335.8,346.9,335,346.4,334.3z"/>
	<path class="st0" d="M328.5,399c-1.9-3.1-3.5-5.9-5.5-9.3c3.5,0.3,6.4-0.1,9.1,1.2c3.3,1.5,3.4,2.9,0.5,5.2
		C331.4,396.9,330.2,397.7,328.5,399z"/>
	<path class="st2" d="M362.1,571c-4.4-1.3-4-5.8-6-8.4c1.2-1.9,3.2,0.3,4-1.5L360,561c-0.2,0.4-0.3,0.8,0.2,1.2c4.7,4,4.7,4,1.8,8.9
		L362.1,571z"/>
	<path class="st4" d="M389.9,203c-0.8,0-1.8,0.3-2-0.9C388.9,201.8,389.5,202.2,389.9,203z"/>
	<path class="st0" d="M247.6,370.5c-0.1,0.2-0.2,0.6-0.4,0.7c-0.5,0.3-0.9,0.1-1.1-0.5c0-0.1,0.4-0.5,0.6-0.6
		C247.2,369.9,247.5,370.1,247.6,370.5z"/>
	<path class="st0" d="M234.2,375.2c-0.2,0.5-0.7,0.8-1.1,0.4c-0.5-0.4,0.1-0.8,0.4-1.1C233.8,374.7,234,375,234.2,375.2z"/>
	<path class="st0" d="M264,355c-0.3-0.1-0.5-0.3-0.8-0.4c0.1-0.1,0.3-0.3,0.4-0.4C263.8,354.5,263.9,354.8,264,355L264,355z"/>
	<polygon class="st2" points="334.9,586.8 334.9,587.1 334.9,586.9 	"/>
	<path class="st2" d="M187,325.1c-2.1-0.8-5,0.9-6.6-1.7c0.3-2.4,3.4-2.2,3.6-4.4c8.1-1.9,15.9-5.2,24.6-4.3c4.5,0.4,9.2-0.5,13.9,0
		c4.8,0.6,8,4.1,12.1,6c1.1,0.5,1.5,2.1,1,4.2C219.5,324.9,203.2,325,187,325.1z"/>
	<path class="st3" d="M339.7,362.2c-3.3-2.6-6.5-5.2-9.9-7.7c-1.8-1.3-3.1-3.4-5.7-3.3c0.8-2.3,2.4-0.9,3.6-0.7
		c2.4,0.5,4.6,1.9,7.2,1.5c0.4,0,0.7,0,1.1,0h-0.1c-0.2,4,3.2,6.4,4.2,9.9C340,362,339.9,362.1,339.7,362.2z"/>
	<path class="st3" d="M336.2,349c1.3,0.6,1.9,1.6,1.8,3c-0.7,0-1.4,0-2,0h0.1c-0.1-0.6-0.6-0.9-1.2-1
		C333.9,349.2,333.9,349.2,336.2,349z"/>
	<path d="M332,346c0.5,0.2,0.8,0.5,0.7,1c0,0.1-0.4,0.2-0.4,0.2C332,346.9,331.8,346.4,332,346L332,346z"/>
	<polygon points="281.7,326.6 281.4,326.8 281.5,326.4 	"/>
	<path d="M267,361c0.2-0.2,0.3-0.5,0.5-0.7C267.8,360.9,267.7,361.2,267,361L267,361z"/>
	<path d="M243,356c0.1-0.2,0.3-0.5,0.4-0.7c0.1,0.2,0.2,0.3,0.4,0.5C243.5,355.9,243.3,355.9,243,356L243,356z"/>
	<path d="M334.8,351c0.6,0.1,1.1,0.4,1.2,1c-0.4,0-0.7,0-1.1,0C334.9,351.7,334.9,351.3,334.8,351z"/>
	<path d="M360.1,374c0.5,0.2,0.8,0.5,0.8,1.1c0,0.2-0.4,0.3-0.5,0.4c-0.1-0.4-0.2-0.9-0.4-1.3L360.1,374z"/>
	<path d="M335,332c-0.4,0-0.6-0.1-0.5-0.4c0,0,0.3,0,0.3,0.1C334.9,331.7,334.9,331.9,335,332L335,332z"/>
	<path d="M351,360c-0.2-0.1-0.4-0.3-0.7-0.4C351.1,359,350.9,359.8,351,360L351,360z"/>
	<path d="M347,373c0.2,0.1,0.5,0.3,0.7,0.4C347.1,374,347.1,373.4,347,373L347,373z"/>
	<path d="M351,374c0.6,0,0.9,0.4,1,1l0.1-0.1C351.5,374.8,351.2,374.5,351,374L351,374z"/>
	<path d="M352,375c0.2,0.1,0.3,0.3,0.5,0.4c-0.1,0-0.2,0-0.3-0.1C352.1,375.3,352.1,375.1,352,375L352,375z"/>
	<path d="M352,354c0.2,0.1,0.4,0.3,0.6,0.4C352,355,352.1,354.3,352,354L352,354z"/>
	<path class="st3" d="M344,361c2.2,0,2.3,1.4,2,3C344.5,363.5,343.9,362.5,344,361z"/>
	<path class="st3" d="M341,357c1.5-0.2,2,0.7,2,2C341.5,359.2,341,358.3,341,357z"/>
	<path class="st3" d="M344,368c-1-0.3-1.1-1.1-1-2l0,0C344,366.4,344.1,367.1,344,368L344,368z"/>
	<path class="st3" d="M340.9,364.1c-0.9-0.3-1.1-1.1-1.2-1.9c0.2-0.1,0.3-0.2,0.4-0.4c0.8,0.4,1,1.2,1,2L340.9,364.1z"/>
	<path class="st3" d="M340,355c1.1,0.3,1.2,1.1,1,2C339.9,356.7,339.8,355.9,340,355z"/>
	<path class="st3" d="M338,352c1.1,0.3,1.2,1.1,1,2C337.9,353.7,337.7,353,338,352z"/>
	<path class="st3" d="M343,359c1.1,0.3,1.3,1.1,1,2C342.9,360.7,342.7,359.9,343,359z"/>
	<path class="st3" d="M337.3,365.6c0.1-0.1,0.2-0.2,0.3-0.3c0.1,0.1,0.2,0.2,0.3,0.3c0.3,0.4,0.1,0.6-0.3,0.4
		C337.5,365.9,337.4,365.7,337.3,365.6z"/>
	<path class="st3" d="M344,368c0.2,0.1,0.5,0.2,0.7,0.3C344,369.1,344.2,368.2,344,368L344,368z"/>
	<path class="st3" d="M339,354c0.7,0,1,0.4,1,1C339.3,355,339,354.7,339,354z"/>
	<path class="st3" d="M341.1,363.9c0.5,0.1,0.8,0.5,1,1l-0.2,0.2c-0.6-0.1-0.8-0.5-1-1L341.1,363.9z"/>
	<path class="st3" d="M342.1,364.9c0.5,0.2,0.8,0.6,0.9,1.1l0,0c-0.6,0-1-0.3-1.1-0.9L342.1,364.9z"/>
	<path class="st3" d="M356,368c1.1,0.3,1.3,1.1,1,2.1C356.1,369.6,355.7,369,356,368z"/>
	<path class="st3" d="M355,367c0.6,0.1,1,0.4,1,1C355.3,368,355,367.7,355,367z"/>
	<path class="st3" d="M351,363c0.7,0,1,0.4,1,1C351.3,364,351,363.6,351,363z"/>
	<path class="st3" d="M352,364c0.7,0,1,0.4,1,1C352.3,365,352,364.7,352,364z"/>
	<path class="st3" d="M353,365c0.7,0,1,0.4,1,1C353.3,366,353,365.7,353,365z"/>
	<path class="st3" d="M354,366c0.6,0.1,1,0.4,1,1C354.3,367,354,366.7,354,366z"/>
</g>
</svg>
