<?xml version="1.0" encoding="utf-8"?>
<!-- Generator: Adobe Illustrator 19.0.0, SVG Export Plug-In . SVG Version: 6.00 Build 0)  -->
<svg version="1.1" id="Camada_1" xmlns="http://www.w3.org/2000/svg" xmlns:xlink="http://www.w3.org/1999/xlink" x="0px" y="0px"
	 viewBox="0 0 566.9 566.9" style="enable-background:new 0 0 566.9 566.9;" xml:space="preserve">
<style type="text/css">
	.st0{fill:#FDFDFD;}
	.st1{fill:#FDAE7D;}
	.st2{fill:#FEFEFE;}
	.st3{fill:#FED1B6;}
	.st4{fill:#FEE2D0;}
	.st5{fill:#FEECE1;}
</style>
<g id="XMLID_1_">
	<g id="XMLID_13_">
		<path id="XMLID_19_" class="st0" d="M513.6,48.8c0,168.1,0,336.2,0.1,504.3c0,2-0.4,2.4-2.4,2.4c-169.5-0.1-339-0.1-508.5-0.1
			C2,555.5,1,556,0.5,555c1-1.2,2.4-1.9,3.8-2.8c13.9-8.8,27.1-18.5,39.6-29.3c13.9-12.1,26.2-25.6,36.2-41.1
			c11.2-17.3,18.4-36.1,20.8-56.7c1.6-13.7,0.1-27.2-2.8-40.6c-3.1-14.3-7.3-28.4-9.6-42.8c-1.9-11.6-2.8-23.4-2.2-35.1
			c0.7-14.4,3.1-28.6,6.2-42.6c3.2-14.6,7.5-28.8,13.5-42.5c6.9-15.7,15.6-30.2,28.2-42.1c12.5-11.8,27.1-19.5,44.4-21.1
			c12.3-1.1,24.4,0.6,36.3,4.2c12,3.6,23.5,8.5,34.9,13.6c19.6,8.8,38.8,18.3,59.3,24.9c11.9,3.8,24.1,6.7,36.6,7.9
			c24.2,2.2,47.3-2.2,69.2-12.7c13.3-6.4,25.5-14.3,36.6-23.9c15.6-13.4,28.6-29,38.9-46.8c7.5-13,13.4-26.7,17.1-41.3
			c2.2-8.6,3.6-17.4,4.6-26.2c0.3-3-0.1-6.1,0.9-9C513.1,48.7,513.3,48.7,513.6,48.8z"/>
		<path id="XMLID_18_" class="st1" d="M513.1,48.9c-1.1,35.5-13.2,67-34.4,95.2c-17.6,23.4-39.4,41.6-66.1,53.9
			c-11.6,5.3-23.7,9-36.3,10.8c-7.9,1.1-15.8,1.8-23.8,1.4c-12.9-0.7-25.5-2.9-37.8-6.6c-16.9-5-32.9-12-48.9-19.3
			c-15.4-7-30.7-14.4-46.9-19.7c-12.9-4.2-26-6.7-39.6-5.6c-12.6,1-24,5.5-34.4,12.6c-13.6,9.4-23.6,22-31.5,36.3
			c-10.5,19-16.9,39.5-21.2,60.7c-2.1,10.2-3.8,20.6-4.8,31c-0.9,10.3-0.7,20.6,0.2,30.9c1.6,17.2,6.4,33.6,10.2,50.4
			c1.8,7.8,3.2,15.7,3.8,23.7c2.3,30.2-6.9,57-23.7,81.6c-9.4,13.8-20.7,25.9-33.2,36.9c-13.1,11.5-27.2,21.7-41.9,31
			c-0.7,0.5-1.4,1.2-2.4,1.1c0-184.1,0-368.1-0.1-552.2c0-2,0.4-2.4,2.4-2.4c168.4,0.1,336.9,0.1,505.3,0.1c1.2,0.6,1.3,1.8,1.6,2.9
			c2.3,10.6,3.8,21.2,3.6,32.1c0,1,0,2.1,0,3.1c0,2.2,0,4.5,0,6.7C513.2,46.5,513.5,47.7,513.1,48.9z"/>
		<path id="XMLID_17_" class="st2" d="M513.1,35.5c-0.3-11.4-2.1-22.7-4.6-33.9c-0.1-0.4-0.3-0.8-0.4-1.1c1.8,0,4.3-0.7,5.2,0.2
			c0.9,0.9,0.2,3.4,0.2,5.2c0,9.9,0,19.7,0,29.6C513.4,35.8,513.3,35.7,513.1,35.5z"/>
		<path id="XMLID_16_" class="st3" d="M513.1,45.4c0-2.3,0-4.6,0-7c0.2-0.2,0.3-0.2,0.4,0c0,2.3,0,4.6,0,6.9
			C513.4,45.6,513.3,45.6,513.1,45.4z"/>
		<path id="XMLID_15_" class="st4" d="M513.1,45.4c0.1,0,0.3,0,0.4,0c0,1.2,0,2.3,0,3.5c-0.1,0-0.3,0-0.4,0
			C513.1,47.7,513.1,46.6,513.1,45.4z"/>
		<path id="XMLID_14_" class="st5" d="M513.6,38.5c-0.1,0-0.3,0-0.4,0c0-1,0-2,0-3c0.1,0,0.3,0,0.4,0
			C513.6,36.5,513.6,37.5,513.6,38.5z"/>
	</g>
</g>
</svg>
